<svg width="1420" height="533" viewBox="0 0 1420 533" fill="none" xmlns="http://www.w3.org/2000/svg">
<path d="M193.764 60.4329C192.404 69.4661 193.952 79.6734 193.856 88.4487C193.7 102.755 193.665 116.759 190.559 130.774C190.318 131.863 186.331 143.963 191.749 140.934C207.348 132.215 220.77 114.986 233.716 102.791C242.833 94.2041 237.642 98.6519 233.568 106.652C233.07 107.631 227.462 116.463 230.196 117.99C238.157 122.432 266.043 111.506 273.498 109.845C285.805 107.104 298.203 103.802 310.65 101.695C320.099 100.095 312.036 107.327 309.415 110.6C301.619 120.336 293.832 130.067 286.28 139.995C282.162 145.41 271.893 155.52 272.062 163.397C272.298 174.395 300.04 154.617 300.799 154.084C316.736 142.875 331.547 130.077 345.964 117.007C349.939 113.403 366.968 95.6734 353.305 110.714C346.854 117.815 324.771 139.532 348.792 128.271C361.539 122.294 373.726 115.235 386.383 109.086C386.771 108.897 394.575 105.017 396.997 105.001C397.969 104.995 396.744 107.007 396.179 107.795C387.548 119.837 376.216 131.677 370.267 145.379C365.513 156.327 393.237 152.532 397.123 151.821C403.976 150.568 409.896 148.1 416.122 145.15C423.161 141.815 416.184 150.444 415.025 152.383C412.882 155.966 395.273 178.633 399.195 182.596C405.161 188.624 413.778 181.366 420.208 182.196C423.361 182.603 412.152 196.766 414.182 199.712C421.287 210.023 444.304 199.255 451.558 194.99C459.879 190.097 463.814 184.283 470.046 177.584C471.566 175.95 482.017 165.307 478.902 170.785C462.327 199.94 444.103 228.241 426.687 256.906L361.342 364.455L313.331 443.474L313.206 443.68C312.253 447.033 311.277 450.316 310.319 453.495C308.024 461.118 303.055 481.795 294.064 485.314C286.341 488.336 295.353 473.063 296.142 471.764L303.884 459.021L313.206 443.68C317.322 429.196 321.006 413.39 320.858 398.89C320.817 394.891 319.095 395.368 315.842 397.379C301.045 406.523 287.398 418.288 273.89 429.166C266.322 435.26 258.694 441.406 251.691 448.157C250.022 449.767 253.689 443.964 254.893 441.983C255.869 440.377 269.514 418.646 266.377 418.018C261.205 416.982 247.803 428.935 243.448 431.518C243.234 431.645 235.014 437.256 234.583 436.885C234.144 436.507 241.106 424.268 241.622 422.947C246.988 409.215 220.815 422.718 216.855 423.919C195.414 430.42 173.76 437.82 152.068 443.368C149.974 443.904 152.07 438.871 153.097 436.971C159.691 424.785 166.806 412.874 173.223 400.591C178.863 389.797 165.512 401.732 162.308 403.725C161.594 404.169 154.655 410.038 156.731 404.945C163.497 388.348 172.3 372.756 178.529 355.865C179.854 352.27 194.812 319.354 181.219 329.19C158.631 345.535 136.738 362.963 115.085 380.519C112.849 382.333 99.1627 395.609 106.879 386.067C111.4 380.476 115.293 374.445 118.591 368.056C119.279 366.724 125.358 355.303 118.623 361.492C104.591 374.387 91.208 387.222 74.1934 396.273C69.4576 398.792 62.9271 402.503 57.4932 403.682C52.9438 404.669 60.0221 387.836 60.1812 387.32C61.3208 383.627 74.0614 343.825 71.0269 342.339C67.4049 340.565 53.5687 356.912 50.014 359.197C47.7341 360.663 62.0543 334.905 63.0218 333.086C70.4625 319.096 77.4372 304.831 83.9193 290.371C86.488 284.641 93.9691 272.218 92.528 264.988C92.098 262.831 62.8731 283.518 60.0009 285.604C59.134 286.234 41.804 301.084 45.5941 294.846L68.2849 257.5C72.5406 250.496 175.219 77.0023 193.764 60.4329Z" fill="#B50202"/>
<path d="M316.8 320L288.2 213.6H286.6L264.8 317L246.8 320L203.4 221.4H202.2L199 317L179 318L188.4 187L236.8 185L257 280.2L280.4 184L328.8 187L334.8 317L316.8 320ZM448.491 280.2C448.491 294.733 445.291 305.333 438.891 312C432.624 318.533 420.957 321.8 403.891 321.8C386.824 321.8 373.491 317.933 363.891 310.2C361.891 300.6 360.891 291 360.891 281.4C360.891 271.8 362.224 262.8 364.891 254.4C367.691 245.867 371.157 238.6 375.291 232.6C383.957 220.333 391.691 212.533 398.491 209.2C411.291 215.733 422.557 224.6 432.291 235.8C443.091 248.067 448.491 262.867 448.491 280.2ZM425.291 274.8C425.291 262.133 422.624 250.533 417.291 240C406.224 245.867 397.091 254.8 389.891 266.8C382.691 278.8 379.091 290.933 379.091 303.2C383.357 304 389.491 304.4 397.491 304.4C405.491 304.4 413.691 303 422.091 300.2C424.224 292.067 425.291 283.6 425.291 274.8ZM507.308 214.4L520.508 291H522.108L547.908 215L564.108 219.4L525.108 317.4L508.908 320L464.508 221L507.308 214.4ZM594.231 320L584.031 221L626.831 214.4L614.031 318.2L594.231 320ZM590.231 198.8C586.631 195.067 584.831 190.667 584.831 185.6C584.831 180.533 586.631 176.2 590.231 172.6C593.965 168.867 598.365 167 603.431 167C608.498 167 612.831 168.867 616.431 172.6C620.165 176.2 622.031 180.533 622.031 185.6C622.031 190.667 620.165 195.067 616.431 198.8C612.831 202.4 608.498 204.2 603.431 204.2C598.365 204.2 593.965 202.4 590.231 198.8ZM688.134 209.2C720.401 222.133 736.534 238.2 736.534 257.4C736.534 267.4 733.668 274.667 727.934 279.2C722.334 283.6 711.868 285.8 696.534 285.8C686.801 285.8 678.801 285.067 672.534 283.6C670.001 289.867 668.734 296.4 668.734 303.2C674.734 304 681.534 304.4 689.134 304.4C703.001 304.4 716.068 302.2 728.334 297.8L734.334 317.2C724.601 320.267 713.668 321.8 701.534 321.8C679.934 321.8 664.068 317.867 653.934 310C651.801 300.533 650.734 291.6 650.734 283.2C650.734 266.4 654.401 251.267 661.734 237.8C669.201 224.333 678.001 214.8 688.134 209.2ZM676.534 274.2C678.268 274.333 682.601 274.4 689.534 274.4C696.601 274.4 704.668 273.467 713.734 271.6C714.134 269.067 714.334 266.533 714.334 264C714.334 256 712.134 248.333 707.734 241C694.534 249.8 684.134 260.867 676.534 274.2ZM759.57 251.2C759.57 234.133 768.57 218.533 786.57 204.4L819.37 226.4C804.57 235.867 797.17 245.8 797.17 256.2C797.17 261.667 800.17 268.8 806.17 277.6C812.304 286.4 815.37 293.267 815.37 298.2C815.37 315.667 803.37 329.133 779.37 338.6L770.57 326.8C781.104 321.067 786.37 314.733 786.37 307.8C786.37 301.267 781.904 293 772.97 283C769.637 279.267 766.57 274.533 763.77 268.8C760.97 263.067 759.57 257.2 759.57 251.2ZM897.32 317L934.72 184L983.12 187L1009.12 317L991.12 320L977.32 286.8L924.12 291.2L917.32 320L897.32 317ZM943.52 209.2L927.72 275.8L972.92 276.2L945.12 209.2H943.52ZM1060.05 321.6C1056.85 321.6 1054.19 321.067 1052.05 320C1047.12 314.933 1043.12 307.4 1040.05 297.4C1037.12 287.4 1035.65 276.267 1035.65 264C1035.65 248.133 1038.72 236.467 1044.85 229C1051.12 221.533 1061.92 217.8 1077.25 217.8C1086.72 217.8 1096.12 219.667 1105.45 223.4L1102.45 180.4L1145.25 173.8L1132.45 318.2L1112.65 320L1110.05 285.6H1108.45C1098.19 309.6 1082.05 321.6 1060.05 321.6ZM1085.05 229.8C1080.12 229.8 1075.92 230.733 1072.45 232.6C1070.59 242.2 1069.65 252.133 1069.65 262.4C1069.65 283.733 1070.99 298.067 1073.65 305.4C1080.19 304.333 1087.05 299.733 1094.25 291.6C1097.99 287.333 1101.05 281.267 1103.45 273.4C1105.99 265.533 1107.25 256.533 1107.25 246.4C1107.25 244.4 1107.12 241.267 1106.85 237C1100.85 232.2 1093.59 229.8 1085.05 229.8ZM1200.29 321.6C1197.09 321.6 1194.42 321.067 1192.29 320C1187.36 314.933 1183.36 307.4 1180.29 297.4C1177.36 287.4 1175.89 276.267 1175.89 264C1175.89 248.133 1178.96 236.467 1185.09 229C1191.36 221.533 1202.16 217.8 1217.49 217.8C1226.96 217.8 1236.36 219.667 1245.69 223.4L1242.69 180.4L1285.49 173.8L1272.69 318.2L1252.89 320L1250.29 285.6H1248.69C1238.42 309.6 1222.29 321.6 1200.29 321.6ZM1225.29 229.8C1220.36 229.8 1216.16 230.733 1212.69 232.6C1210.82 242.2 1209.89 252.133 1209.89 262.4C1209.89 283.733 1211.22 298.067 1213.89 305.4C1220.42 304.333 1227.29 299.733 1234.49 291.6C1238.22 287.333 1241.29 281.267 1243.69 273.4C1246.22 265.533 1247.49 256.533 1247.49 246.4C1247.49 244.4 1247.36 241.267 1247.09 237C1241.09 232.2 1233.82 229.8 1225.29 229.8ZM1326.52 321.6C1324.26 321.6 1322.59 321.533 1321.52 321.4C1316.99 318.333 1313.32 313.8 1310.52 307.8C1307.86 301.667 1306.52 295.333 1306.52 288.8C1306.52 280.267 1309.72 274.067 1316.12 270.2C1322.66 266.333 1334.59 264.4 1351.92 264.4C1358.32 264.4 1364.99 264.867 1371.92 265.8L1371.52 261.4C1370.99 256.067 1368.46 251.867 1363.92 248.8C1359.39 245.6 1353.59 244 1346.52 244C1339.46 244 1332.39 246.2 1325.32 250.6L1316.52 221.6C1327.99 216.933 1341.06 214.6 1355.72 214.6C1370.39 214.6 1381.99 217.933 1390.52 224.6C1399.06 231.133 1403.32 241.4 1403.32 255.4C1403.32 258.6 1403.19 261.133 1402.92 263L1397.32 318.2L1377.52 320L1374.52 291H1372.92C1368.39 300.6 1362.12 308.133 1354.12 313.6C1346.12 318.933 1336.92 321.6 1326.52 321.6ZM1372.72 274.2L1362.12 274C1353.32 274 1346.12 274.467 1340.52 275.4C1338.66 279.133 1337.72 282.467 1337.72 285.4C1337.72 288.333 1338.12 291.133 1338.92 293.8C1339.72 296.467 1340.59 298.267 1341.52 299.2C1357.52 296.667 1367.92 288.333 1372.72 274.2Z" fill="white"/>
</svg>
