<svg width="493" height="533" viewBox="0 0 493 533" fill="none" xmlns="http://www.w3.org/2000/svg">
<path d="M193.764 60.4329C192.404 69.4661 193.952 79.6734 193.856 88.4487C193.7 102.755 193.665 116.759 190.559 130.774C190.318 131.863 186.331 143.963 191.749 140.934C207.348 132.215 220.77 114.986 233.716 102.791C242.833 94.2041 237.642 98.6519 233.568 106.652C233.07 107.631 227.462 116.463 230.196 117.99C238.157 122.432 266.043 111.506 273.498 109.845C285.805 107.104 298.203 103.802 310.65 101.695C320.099 100.095 312.036 107.327 309.415 110.6C301.619 120.336 293.832 130.067 286.28 139.995C282.162 145.41 271.893 155.52 272.062 163.397C272.298 174.395 300.04 154.617 300.799 154.084C316.736 142.875 331.547 130.077 345.964 117.007C349.939 113.403 366.968 95.6734 353.305 110.714C346.854 117.815 324.771 139.532 348.792 128.271C361.539 122.294 373.726 115.235 386.383 109.086C386.771 108.897 394.575 105.017 396.997 105.001C397.969 104.995 396.744 107.007 396.179 107.795C387.548 119.837 376.216 131.677 370.267 145.379C365.513 156.327 393.237 152.532 397.123 151.821C403.976 150.568 409.896 148.1 416.122 145.15C423.161 141.815 416.184 150.444 415.025 152.383C412.882 155.966 395.273 178.633 399.195 182.596C405.161 188.624 413.778 181.366 420.208 182.196C423.361 182.603 412.152 196.766 414.182 199.712C421.287 210.023 444.304 199.255 451.558 194.99C459.879 190.097 463.814 184.283 470.046 177.584C471.566 175.95 482.017 165.307 478.902 170.785C462.327 199.94 444.103 228.241 426.687 256.906L361.342 364.455L313.331 443.474L313.206 443.68C312.253 447.033 311.277 450.316 310.319 453.495C308.024 461.118 303.055 481.795 294.064 485.314C286.341 488.336 295.353 473.063 296.142 471.764L303.884 459.021L313.206 443.68C317.322 429.196 321.006 413.39 320.858 398.89C320.817 394.891 319.095 395.368 315.842 397.379C301.045 406.523 287.398 418.288 273.89 429.166C266.322 435.26 258.694 441.406 251.691 448.157C250.022 449.767 253.689 443.964 254.893 441.983C255.869 440.377 269.514 418.646 266.377 418.018C261.205 416.982 247.803 428.935 243.448 431.518C243.234 431.645 235.014 437.256 234.583 436.885C234.144 436.507 241.106 424.268 241.622 422.947C246.988 409.215 220.815 422.718 216.855 423.919C195.414 430.42 173.76 437.82 152.068 443.368C149.974 443.904 152.07 438.871 153.097 436.971C159.691 424.785 166.806 412.874 173.223 400.591C178.863 389.797 165.512 401.732 162.308 403.725C161.594 404.169 154.655 410.038 156.731 404.945C163.497 388.348 172.3 372.756 178.529 355.865C179.854 352.27 194.812 319.354 181.219 329.19C158.631 345.535 136.738 362.963 115.085 380.519C112.849 382.333 99.1627 395.609 106.879 386.067C111.4 380.476 115.293 374.445 118.591 368.056C119.279 366.724 125.358 355.303 118.623 361.492C104.591 374.387 91.208 387.222 74.1934 396.273C69.4576 398.792 62.9271 402.503 57.4932 403.682C52.9438 404.669 60.0221 387.836 60.1812 387.32C61.3208 383.627 74.0614 343.825 71.0269 342.339C67.4049 340.565 53.5687 356.912 50.014 359.197C47.7341 360.663 62.0543 334.905 63.0218 333.086C70.4625 319.096 77.4372 304.831 83.9193 290.371C86.488 284.641 93.9691 272.218 92.528 264.988C92.098 262.831 62.8731 283.518 60.0009 285.604C59.134 286.234 41.804 301.084 45.5941 294.846L68.2849 257.5C72.5406 250.496 175.219 77.0023 193.764 60.4329Z" fill="#B50202"/>
<path d="M234.8 336L206.2 229.6H204.6L182.8 333L164.8 336L121.4 237.4H120.2L117 333L97 334L106.4 203L154.8 201L175 296.2L198.4 200L246.8 203L252.8 333L234.8 336ZM274.891 333L312.291 200L360.691 203L386.691 333L368.691 336L354.891 302.8L301.691 307.2L294.891 336L274.891 333ZM321.091 225.2L305.291 291.8L350.491 292.2L322.691 225.2H321.091Z" fill="white"/>
</svg>
